<svg xmlns="http://www.w3.org/2000/svg" viewBox="0 0 64 64" fill="none" x="0px" y="0px">
    <path
        d="M10 2C5.58172 2 2 5.58172 2 10V18C2 19.1046 2.89543 20 4 20C5.10457 20 6 19.1046 6 18V10C6 7.79086 7.79086 6 10 6H18C19.1046 6 20 5.10457 20 4C20 2.89543 19.1046 2 18 2H10Z"
        fill="black" />
    <path
        d="M46 2C44.8954 2 44 2.89543 44 4C44 5.10457 44.8954 6 46 6H54C56.2091 6 58 7.79086 58 10V18C58 19.1046 58.8954 20 60 20C61.1046 20 62 19.1046 62 18V10C62 5.58172 58.4183 2 54 2H46Z"
        fill="black" />
    <path
        d="M6 46C6 44.8954 5.10457 44 4 44C2.89543 44 2 44.8954 2 46V54C2 58.4183 5.58172 62 10 62H18C19.1046 62 20 61.1046 20 60C20 58.8954 19.1046 58 18 58H10C7.79086 58 6 56.2091 6 54V46Z"
        fill="black" />
    <path
        d="M62 46C62 44.8954 61.1046 44 60 44C58.8954 44 58 44.8954 58 46V54C58 56.2091 56.2091 58 54 58H46C44.8954 58 44 58.8954 44 60C44 61.1046 44.8954 62 46 62H54C58.4183 62 62 58.4183 62 54V46Z"
        fill="black" />
    <path
        d="M24.0326 24.2562C23.3564 19.3444 27.1367 15 32 15C36.8633 15 40.6436 19.3444 39.9674 24.2562L39.2817 29.2378C38.9822 31.414 37.7729 33.2563 36.077 34.4008C35.4483 34.8252 35.1137 35.5686 35.2131 36.3206L35.732 40.2477C35.8593 41.2109 36.4985 42.0387 37.4148 42.3966L45.9462 45.7289C46.4671 45.9323 46.8895 46.343 47.1107 46.873L49.1543 51.7702C49.5796 52.7896 50.7508 53.2711 51.7702 52.8457C52.7896 52.4204 53.2711 51.2492 52.8457 50.2298L50.8022 45.3326C50.1661 43.8082 48.9408 42.6042 47.4015 42.003L39.5959 38.9542L39.3303 36.9447C41.4034 35.1782 42.8475 32.6669 43.2444 29.7833L43.9301 24.8017C44.9314 17.5272 39.3301 11 32 11C24.6699 11 19.0686 17.5272 20.0699 24.8017L20.7556 29.7833C21.1637 32.7482 22.6787 35.3193 24.8464 37.0922L24.4834 38.9233L16.5985 42.003C15.0592 42.6042 13.8339 43.8082 13.1978 45.3326L11.1543 50.2298C10.7289 51.2492 11.2104 52.4204 12.2298 52.8457C13.2492 53.2711 14.4204 52.7896 14.8457 51.7702L16.8893 46.873C17.1105 46.343 17.5329 45.9323 18.0538 45.7289L26.6124 42.386C27.4706 42.0508 28.09 41.301 28.267 40.4077L29.0193 36.6125C29.1804 35.7997 28.8236 34.9718 28.1222 34.5306C26.3223 33.3987 25.0294 31.4983 24.7183 29.2378L24.0326 24.2562Z"
        fill="black" />
</svg>