<svg xmlns="http://www.w3.org/2000/svg" viewBox="0 0 400 400" x="0px" y="0px">
    <path fill="#fff"
        d="M328,174.22a22.05,22.05,0,0,0-11.56-6.13c0-40.71-10.41-72-31-93C265.71,55,236.17,44.38,200,44.38S134.29,55,114.56,75.12c-20.59,21-31,52.26-31,93A22.05,22.05,0,0,0,72,174.22c-7.4,7.45-10.09,20.15-8,37.75,5.2,43.3,26.5,52,35.33,53.72,16.79,50.51,42.76,72.24,61.77,81.58,19.28,9.47,35.3,8.5,38.87,8.14a46.9,46.9,0,0,0,4.7.21,78.36,78.36,0,0,0,34.17-8.35c33.91-16.66,52.22-52.92,61.77-81.58C309.47,264,330.77,255.27,336,212,338.09,194.37,335.4,181.67,328,174.22Zm-7,7.18c3.64,3.76,5.54,10.22,5.63,18.94-4.88,3.17-15.06,9-31.16,14.59V168.1a244.65,244.65,0,0,0-3.35-40.23,83,83,0,0,0,8.66-5.18q6.12,21.67,5.58,49.92l-.17,5.72,5.68-.65A12.11,12.11,0,0,1,321,181.4ZM274.21,299.81a138.52,138.52,0,0,1-30,15.34A174.89,174.89,0,0,0,250.09,288c.6-4.08,1.1-8.27,1.53-12.53,14.93-2.84,27.55-6.24,35.78-8.69a150.73,150.73,0,0,1-5,17.77A158.17,158.17,0,0,1,274.21,299.81Zm-53,43.48a62.73,62.73,0,0,1-18.72,2.28V328.12a132.53,132.53,0,0,0,33.37-4.95A54.08,54.08,0,0,1,225,340,36.44,36.44,0,0,1,221.22,343.29ZM173.17,340c-4.49-4.5-8.14-10.42-11.13-17.47a130.76,130.76,0,0,0,35.46,5.61v17.44a63.26,63.26,0,0,1-21.6-3.12A34.83,34.83,0,0,1,173.17,340Zm-61.56-69.65c-.32-1.32-.63-2.68-.93-4.06a342.77,342.77,0,0,0,35.94,9.08c1.46,14.34,3.73,27.55,7.2,38.91a130.12,130.12,0,0,1-28.7-15.55A174.55,174.55,0,0,1,111.61,270.33Zm-1-140.71c8.15,4,19.63,8.37,35.18,11.6-.74,7-1.22,14.32-1.36,22-23.32,1-31.39,9.69-32.28,10.73a5,5,0,0,0,7.64,6.46c.05-.07,6.19-6.31,24.57-7.17,0,2.77,0,5.54,0,8.21-5.79.94-12.22,3.32-20.8,7a9.21,9.21,0,0,0-1.13,16.3c8.82,5.38,15.57,8.89,21.74,10.64q0,4.66.05,9.3a250.43,250.43,0,0,1-36.52-8.88V168.1A241.31,241.31,0,0,1,110.64,129.62Zm20.93-56a84.08,84.08,0,0,1,11.79-7.26A118.73,118.73,0,0,0,163,74.08a232.85,232.85,0,0,0-16.6,62.08c-15.71-3.34-27-7.83-34.84-11.8C115.87,101.72,123.29,84.53,131.57,73.6ZM197.5,54.42v20a124.18,124.18,0,0,1-27.6-3.74,156.83,156.83,0,0,1,7.83-14.84A158.81,158.81,0,0,1,197.5,54.42Zm22.79,1.21A155,155,0,0,1,228.44,71a118.27,118.27,0,0,1-25.94,3.43v-20A159.71,159.71,0,0,1,220.29,55.63Zm44.07,15.15c9.23,10.76,17.69,29.15,22.35,54.09a152.68,152.68,0,0,1-34.92,11.36A233.12,233.12,0,0,0,235.32,74.4a104.6,104.6,0,0,0,20.54-8.47A87,87,0,0,1,264.36,70.78ZM225.93,200.19c20.7-11.57,24.86-11.87,45.12-3.16C251,209.16,245.62,209.55,225.93,200.19Zm22.8-37.06c-24.67.59-38,9.5-38.55,9.89a5,5,0,0,0,2.84,9.12,4.91,4.91,0,0,0,2.78-.85c.12-.08,11.62-7.6,33-8.15,0,2.65,0,5.3.05,7.86-8.19.35-16.27,4-29.15,11.22a9.21,9.21,0,0,0,.51,16.32h0c11.18,5.38,19,8.17,26.62,8.17.74,0,1.47,0,2.21-.09,0,3.1,0,6.2-.06,9.28a342,342,0,0,1-46.47,3.26v-83a271.07,271.07,0,0,0,44.95-3.94C248.14,148.86,248.59,155.84,248.73,163.13Zm-74.66,37.06c-19.69,9.36-25.06,9-45.12-3.16C149.2,188.32,153.37,188.62,174.07,200.19Zm-20.89,16.52c7.59,0,15.44-2.79,26.62-8.17h0a9.21,9.21,0,0,0,.51-16.32c-13.83-7.77-22.12-11.38-31-11.25,0-2.56,0-5.21,0-7.86,22.54.16,34.69,8.1,34.79,8.17a5,5,0,1,0,5.64-8.26c-.58-.4-14.54-9.73-40.36-9.91.14-7.31.6-14.29,1.29-20.93a268.33,268.33,0,0,0,46.75,4v83a341.61,341.61,0,0,1-48.28-3.65c0-3-.05-6-.06-9.06A31.93,31.93,0,0,0,153.18,216.71ZM167.8,75.41a129.29,129.29,0,0,0,29.7,4.06v61.71a259.79,259.79,0,0,1-46.18-4A231.06,231.06,0,0,1,164.8,82.71Q166.32,78.83,167.8,75.41Zm29.7,158.74v22.07c-5.75-.85-10.22-4.55-10.22-8.84a4.47,4.47,0,0,0-8.94,0c0,9.2,8.39,16.81,19.16,17.84v10.6a269.15,269.15,0,0,1-46.29-4.68c-1.16-12.81-1.71-26.49-1.93-40.5A352.34,352.34,0,0,0,197.5,234.15Zm5,31.07c10.77-1,19.16-8.64,19.16-17.84a4.47,4.47,0,0,0-8.94,0c0,4.29-4.47,8-10.22,8.84V234.16A354.72,354.72,0,0,0,248.9,231c-.22,13.91-.77,27.49-1.92,40.21a279.69,279.69,0,0,1-44.48,4.57Zm0-124.05V79.47a124,124,0,0,0,28-3.74c.94,2.18,1.9,4.51,2.85,7a230.88,230.88,0,0,1,13.49,54.48A263,263,0,0,1,202.5,141.17Zm30.76-71.44c-2.47-5.41-4.77-9.82-6.64-13.14a110.19,110.19,0,0,1,23.45,6.68A107.09,107.09,0,0,1,233.26,69.73Zm-68.19-.31a122,122,0,0,1-15.83-5.85,108.82,108.82,0,0,1,22.13-6.63C169.57,60.16,167.4,64.33,165.07,69.42Zm-20.8,160.45c.21,13.89.75,27.49,1.86,40.29a332.53,332.53,0,0,1-36.57-9.49c-1.83-10.11-2.82-21-1.88-30.42,0-.08,0-.17,0-.25v-8.76A255.6,255.6,0,0,0,144.27,229.87Zm7.44,46.44a272.35,272.35,0,0,0,45.79,4.51v11.42a145,145,0,0,1-25.94-4.19,5,5,0,0,0-2.63,9.65,151.4,151.4,0,0,0,28.57,4.55v20.87a125.77,125.77,0,0,1-37.79-6.7C155.81,305.05,153.3,291.37,151.71,276.31Zm50.79,46.81V302.37a91.28,91.28,0,0,0,29-4.81,5,5,0,0,0-3.51-9.37,82.26,82.26,0,0,1-25.5,4.18V280.8a282.15,282.15,0,0,0,44-4.41c-1.61,15.36-4.2,29.29-8.25,40.78A127.71,127.71,0,0,1,202.5,323.12Zm88-92.87c1,9.6-.08,20.69-2,30.95a365.84,365.84,0,0,1-36.42,9.07c1.13-13.15,1.63-26.81,1.82-40A253.78,253.78,0,0,0,290.5,222v8A2.09,2.09,0,0,0,290.51,230.25ZM254,225.14c0-3.13,0-6.23,0-9.28,6.67-1.54,13.87-5.19,23.55-11.1a9.21,9.21,0,0,0-1.13-16.3c-9.48-4.11-16.35-6.58-22.61-7.29,0-2.61,0-5.32-.05-8,19.87.53,26.41,7.26,26.47,7.33l-.08-.09,7.64-6.46c-.91-1.07-9.37-10.22-34.09-10.79-.15-7.61-.62-14.9-1.35-21.84a157.48,157.48,0,0,0,35.24-11.18,240.7,240.7,0,0,1,2.88,38v48.5A249.52,249.52,0,0,1,254,225.14Zm45.26-107.53a77.62,77.62,0,0,1-8.07,5c-2.94-15.16-7.44-29.51-13.61-41.17l.73.7C287.56,91.56,294.55,103.43,299.25,117.61ZM118.59,85.5c-5,10.68-8.85,23.23-11.45,36.44a69.44,69.44,0,0,1-6.42-4.21A92.17,92.17,0,0,1,118.59,85.5ZM88,177.68l5.68.64-.11-5.71q-.56-28.11,5.54-49.76a76.86,76.86,0,0,0,7,4.41,244.52,244.52,0,0,0-3.46,40.84v46c-15-5.36-24.63-10.8-29.35-13.81.1-8.69,2-15.14,5.63-18.89A12.06,12.06,0,0,1,88,177.68ZM74,210.78c-.19-1.52-.32-3-.42-4.42a157.5,157.5,0,0,0,29.15,13.21v10.31c-.77,7.91-.21,17.14,1.11,26.24h-.72C102.72,256.12,79.35,255.69,74,210.78Zm58.33,98.68a136.58,136.58,0,0,0,23.63,11A72,72,0,0,0,165,338h0C152.72,331.87,141.75,322.23,132.29,309.46ZM235,338q-1.41.71-2.79,1.32a69,69,0,0,0,9.79-18,141.77,141.77,0,0,0,25.18-11.16C257.86,322.57,247.06,332,235,338Zm61.88-81.89-2.52,0c1.32-9.09,1.88-18.32,1.11-26.22v-9.49a155.65,155.65,0,0,0,31-13.94c-.11,1.4-.24,2.84-.42,4.33C320.71,255.21,297.82,256.11,296.91,256.12Z" />
</svg>